<svg xmlns="http://www.w3.org/2000/svg" width="1464" height="1397.333" version="1.0" viewBox="0 0 1098 1048"><path d="M433.2 124.5c-.2 4.4-.2 16.3-.2 26.5.1 17.4 0 18.6-2 20.2-1.1 1-2 2.4-2 3.2 0 1.8 2.7 4.6 4.5 4.6s4.5-2.8 4.5-4.5c0-.8-.9-2.3-2-3.3-1.8-1.7-2-3.4-2.3-28.3-.1-14.5-.4-22.8-.5-18.4M407 319.8c0 90.5-.1 95.1-1.9 100.4l-1.9 5.5 30.1.6c16.5.4 30.3.5 30.5.2.3-.3-.5-3-1.7-6.1-2.1-5.6-2.1-5.8-2.1-100.5V225h-53zM403 503.8v70.8l30.5.3 30.5.3V433h-61zM422.3 625.7l-25.3.3v320h73V625l-11.2.2c-6.2.2-22.7.4-36.5.5"/></svg>