<svg xmlns="http://www.w3.org/2000/svg" width="1464" height="1397.333" version="1.0" viewBox="0 0 1098 1048"><path d="M840.6 99.1c-2.1 9-2.6 11.9-2.6 16.1 0 3.6-.5 5-1.9 5.7-1.2.7-3 4.5-4.9 10.3-1.7 5.1-4.9 14.6-7.1 21.1-2.8 8.1-4.1 13.6-4.1 17.2 0 3.8-.4 5.4-1.5 5.9-.8.3-1.5 1.2-1.5 2.1 0 1.3 3.1 1.5 24 1.5 22.9 0 24-.1 24-1.9 0-1-.7-2.1-1.5-2.5-1.1-.4-1.5-2.1-1.5-6.8 0-5.2-1.2-10-6.7-26.6-4.9-14.5-7.3-20.4-8.5-20.8-1.4-.4-1.8-1.7-1.8-5.7-.1-4.9-2.3-16.3-3.4-17.4-.3-.3-.7.5-1 1.8M817 193.5v3.5h48v-7h-48zM813 895.5V967h56V824h-56z"/></svg>